#N canvas 404 220 1008 642 10;
#X obj -1026 -64 dac~;
#X obj -1027 -199 soundfiler;
#X msg -1027 -169 bang;
#X obj -912 -123 t b;
#X obj -1003 -145 print patch loaded;
#X obj -1087 -250 bng 15 250 50 0 empty play_1 play_1 17 7 0 10 -262144
-1 -1;
#X obj -1142 -333 table array_1;
#X obj -1055 -333 table array_2;
#X obj -1027 -100 tabplay~ array_1;
#X obj -980 -55 bng 15 250 50 0 empty stop_1 stop_1 17 7 0 10 -262144
-1 -1;
#X obj -968 -333 table array_3;
#X obj -881 -333 table array_4;
#X obj -793 -333 table array_5;
#X obj -706 -333 table array_6;
#X obj -619 -333 table array_7;
#X obj -532 -333 table array_8;
#X obj -445 -333 table array_9;
#X obj -357 -333 table array_10;
#X obj -1142 -312 table array_11;
#X obj -1055 -312 table array_12;
#X obj -968 -312 table array_13;
#X obj -881 -312 table array_14;
#X obj -793 -312 table array_15;
#X obj -706 -313 table array_16;
#X obj -619 -313 table array_17;
#X obj -532 -313 table array_18;
#X obj -445 -313 table array_19;
#X obj -357 -313 table array_20;
#X msg -1088 -224 read -maxsize 1e+08 -resize vocals.wav array_1;
#X obj -906 -81 *~ 1;
#X msg -980 -8 \; array_1 const 0 \;;
#X obj -1127 -108 nbx 5 14 0.01 1 1 0 empty empty empty 0 -8 0 10 -262144
-1 -1 0.01 256;
#X obj -1127 -182 nbx 5 14 0.01 1 1 0 empty volume_left_1 volume_left_1
0 -8 0 10 -262144 -1 -1 0.01 256;
#X obj -867 -106 nbx 5 14 0.01 1 1 0 empty empty empty 0 -8 0 10 -262144
-1 -1 0.01 256;
#X obj -867 -175 nbx 5 14 0.01 1 1 0 empty volume_right_1 volume_right_1
0 -8 0 10 -262144 -1 -1 0.01 256;
#X obj -867 -130 line 0 20;
#X msg -867 -153 \$1 39;
#X obj -1127 -133 line 0 20;
#X msg -1024 -40 0.01;
#X msg -1127 -160 \$1 39;
#X msg -340 430 read -maxsize 1e+08 -resize guitar.wav array_11;
#X msg 29 428 read -maxsize 1e+08 -resize ds.wav array_12;
#X msg -1099 754 read -maxsize 1e+08 -resize clarinet.wav array_13
;
#X msg -713 763 read -maxsize 1e+08 -resize mallet.wav array_14;
#X msg -339 774 read -maxsize 1e+08 -resize electribe.wav array_15
;
#X msg -692 -225 read -maxsize 1e+08 -resize banjo.wav array_2;
#X msg -318 -223 read -maxsize 1e+08 -resize ballons.wav array_3;
#X msg -723 109 read -maxsize 1e+08 -resize strings.wav array_6;
#X msg -336 115 read -maxsize 1e+08 -resize rhodes.wav array_7;
#X msg 70 -223 read -maxsize 1e+08 -resize ebow.wav array_4;
#X msg -1116 90 read -maxsize 1e+08 -resize piano_tender.wav array_5
;
#X msg 42 117 read -maxsize 1e+08 -resize love.wav array_8;
#X msg -1127 433 read -maxsize 1e+08 -resize acoustic_guitar.wav array_9
;
#X msg -722 432 read -maxsize 1e+08 -resize flute_piano.wav array_10
;
#X msg 38 762 read -maxsize 1e+08 -resize pad_synth.wav array_16;
#X msg -1125 1080 read -maxsize 1e+08 -resize harmon_trumpet.wav array_17
;
#X msg -738 1091 read -maxsize 1e+08 -resize omnichord_qchord.wav array_18
;
#X msg -352 1100 read -maxsize 1e+08 -resize electric_bass.wav array_19
;
#X msg 44 1101 read -maxsize 1e+08 -resize information.wav array_20
;
#X obj -630 -63 dac~;
#X obj -631 -198 soundfiler;
#X msg -631 -168 bang;
#X obj -516 -122 t b;
#X obj -607 -144 print patch loaded;
#X obj -692 -249 bng 15 250 50 0 empty play_2 play_2 17 7 0 10 -262144
-1 -1;
#X obj -732 -81 *~ 1;
#X obj -584 -54 bng 15 250 50 0 empty stop_2 stop_2 17 7 0 10 -262144
-1 -1;
#X obj -492 -80 *~ 1;
#X obj -731 -107 nbx 5 14 0.01 1 1 0 empty empty empty 0 -8 0 10 -262144
-1 -1 0.01 256;
#X obj -731 -181 nbx 5 14 0.01 1 1 0 empty volume_left_2 volume_left_2
0 -8 0 10 -262144 -1 -1 0.01 256;
#X obj -471 -105 nbx 5 14 0.01 1 1 0 empty empty empty 0 -8 0 10 -262144
-1 -1 0.01 256;
#X obj -471 -174 nbx 5 14 0.01 1 1 0 empty volume_right_2 volume_right_2
0 -8 0 10 -262144 -1 -1 0.01 256;
#X obj -471 -129 line 0 20;
#X msg -471 -152 \$1 39;
#X obj -731 -132 line 0 20;
#X msg -628 -39 0.01;
#X msg -731 -159 \$1 39;
#X obj -257 -63 dac~;
#X obj -258 -198 soundfiler;
#X msg -258 -168 bang;
#X obj -143 -122 t b;
#X obj -234 -144 print patch loaded;
#X obj -318 -249 bng 15 250 50 0 empty play_3 play_3 17 7 0 10 -262144
-1 -1;
#X obj -358 -81 *~ 1;
#X obj -211 -54 bng 15 250 50 0 empty stop_3 stop_3 17 7 0 10 -262144
-1 -1;
#X obj -119 -81 *~ 1;
#X obj -358 -107 nbx 5 14 0.01 1 1 0 empty empty empty 0 -8 0 10 -262144
-1 -1 0.01 256;
#X obj -358 -181 nbx 5 14 0.01 1 1 0 empty volume_left_3 volume_left_3
0 -8 0 10 -262144 -1 -1 0.01 256;
#X obj -98 -105 nbx 5 14 0.01 1 1 0 empty empty empty 0 -8 0 10 -262144
-1 -1 0.01 256;
#X obj -98 -174 nbx 5 14 0.01 1 1 0 empty volume_right_3 volume_right_3
0 -8 0 10 -262144 -1 -1 0.01 256;
#X obj -98 -129 line 0 20;
#X msg -98 -152 \$1 39;
#X obj -358 -132 line 0 20;
#X msg -255 -39 0.01;
#X msg -358 -159 \$1 39;
#X obj 123 281 dac~;
#X obj 122 146 soundfiler;
#X msg 122 176 bang;
#X obj 237 222 t b;
#X obj 146 200 print patch loaded;
#X obj 60 95 bng 15 250 50 0 empty play_8 play_8 17 7 0 10 -262144
-1 -1;
#X obj 22 263 *~ 1;
#X obj 169 290 bng 15 250 50 0 empty stop_8 stop_8 17 7 0 10 -262144
-1 -1;
#X obj 261 263 *~ 1;
#X obj 22 237 nbx 5 14 0.01 1 1 0 empty empty empty 0 -8 0 10 -262144
-1 -1 0.01 256;
#X obj 282 239 nbx 5 14 0.01 1 1 0 empty empty empty 0 -8 0 10 -262144
-1 -1 0.01 256;
#X obj 282 170 nbx 5 14 0.01 1 1 0 empty volume_right_8 volume_right_8
0 -8 0 10 -262144 -1 -1 0.01 256;
#X obj 282 215 line 0 20;
#X msg 282 192 \$1 39;
#X obj 22 212 line 0 20;
#X msg 125 305 0.01;
#X msg 22 185 \$1 39;
#X obj 130 -59 dac~;
#X obj 129 -194 soundfiler;
#X msg 129 -164 bang;
#X obj 244 -118 t b;
#X obj 153 -140 print patch loaded;
#X obj 68 -245 bng 15 250 50 0 empty play_4 play_4 17 7 0 10 -262144
-1 -1;
#X obj 29 -77 *~ 1;
#X obj 176 -50 bng 15 250 50 0 empty stop_4 stop_4 17 7 0 10 -262144
-1 -1;
#X obj 268 -77 *~ 1;
#X obj 29 -103 nbx 5 14 0.01 1 1 0 empty empty empty 0 -8 0 10 -262144
-1 -1 0.01 256;
#X obj 29 -177 nbx 5 14 0.01 1 1 0 empty volume_left_4 volume_left_4
0 -8 0 10 -262144 -1 -1 0.01 256;
#X obj 289 -101 nbx 5 14 0.01 1 1 0 empty empty empty 0 -8 0 10 -262144
-1 -1 0.01 256;
#X obj 289 -170 nbx 5 14 0.01 1 1 0 empty volume_right_4 volume_right_4
0 -8 0 10 -262144 -1 -1 0.01 256;
#X obj 289 -125 line 0 20;
#X msg 289 -148 \$1 39;
#X obj 29 -128 line 0 20;
#X msg 132 -35 0.01;
#X msg 29 -155 \$1 39;
#X obj 115 594 dac~;
#X obj 114 459 soundfiler;
#X msg 114 489 bang;
#X obj 229 535 t b;
#X obj 138 513 print patch loaded;
#X obj 53 408 bng 15 250 50 0 empty play_12 play_12 17 7 0 10 -262144
-1 -1;
#X obj 14 576 *~ 1;
#X obj 161 603 bng 15 250 50 0 empty stop_12 stop_12 17 7 0 10 -262144
-1 -1;
#X obj 253 576 *~ 1;
#X obj 14 550 nbx 5 14 0.01 1 1 0 empty empty empty 0 -8 0 10 -262144
-1 -1 0.01 256;
#X obj 14 476 nbx 5 14 0.01 1 1 0 empty volume_left_12 volume_left_12
0 -8 0 10 -262144 -1 -1 0.01 256;
#X obj 274 552 nbx 5 14 0.01 1 1 0 empty empty empty 0 -8 0 10 -262144
-1 -1 0.01 256;
#X obj 274 483 nbx 5 14 0.01 1 1 0 empty volume_right_12 volume_right_12
0 -8 0 10 -262144 -1 -1 0.01 256;
#X obj 274 528 line 0 20;
#X msg 274 505 \$1 39;
#X obj 14 525 line 0 20;
#X msg 117 618 0.01;
#X msg 14 498 \$1 39;
#X obj 138 923 dac~;
#X obj 137 788 soundfiler;
#X msg 137 818 bang;
#X obj 252 864 t b;
#X obj 161 842 print patch loaded;
#X obj 76 737 bng 15 250 50 0 empty play_16 play_16 17 7 0 10 -262144
-1 -1;
#X obj 37 905 *~ 1;
#X obj 184 932 bng 15 250 50 0 empty stop_16 stop_16 17 7 0 10 -262144
-1 -1;
#X obj 276 905 *~ 1;
#X obj 37 879 nbx 5 14 0.01 1 1 0 empty empty empty 0 -8 0 10 -262144
-1 -1 0.01 256;
#X obj 37 805 nbx 5 14 0.01 1 1 0 empty volume_left_16 volume_left_16
0 -8 0 10 -262144 -1 -1 0.01 256;
#X obj 297 881 nbx 5 14 0.01 1 1 0 empty empty empty 0 -8 0 10 -262144
-1 -1 0.01 256;
#X obj 297 812 nbx 5 14 0.01 1 1 0 empty volume_right_16 volume_right_16
0 -8 0 10 -262144 -1 -1 0.01 256;
#X obj 297 857 line 0 20;
#X msg 297 834 \$1 39;
#X obj 37 854 line 0 20;
#X msg 140 947 0.01;
#X msg 37 827 \$1 39;
#X obj 149 1262 dac~;
#X obj 148 1127 soundfiler;
#X msg 148 1157 bang;
#X obj 263 1203 t b;
#X obj 172 1181 print patch loaded;
#X obj 87 1076 bng 15 250 50 0 empty play_20 play_20 17 7 0 10 -262144
-1 -1;
#X obj 48 1244 *~ 1;
#X obj 195 1271 bng 15 250 50 0 empty stop_20 stop_20 17 7 0 10 -262144
-1 -1;
#X obj 287 1244 *~ 1;
#X obj 48 1218 nbx 5 14 0.01 1 1 0 empty empty empty 0 -8 0 10 -262144
-1 -1 0.01 256;
#X obj 48 1144 nbx 5 14 0.01 1 1 0 empty volume_left_20 volume_left_20
0 -8 0 10 -262144 -1 -1 0.01 256;
#X obj 308 1220 nbx 5 14 0.01 1 1 0 empty empty empty 0 -8 0 10 -262144
-1 -1 0.01 256;
#X obj 308 1151 nbx 5 14 0.01 1 1 0 empty volume_right_20 volume_right_20
0 -8 0 10 -262144 -1 -1 0.01 256;
#X obj 308 1196 line 0 20;
#X msg 308 1173 \$1 39;
#X obj 48 1193 line 0 20;
#X msg 151 1286 0.01;
#X msg 48 1166 \$1 39;
#X obj -1024 257 dac~;
#X obj -1025 122 soundfiler;
#X msg -1025 152 bang;
#X obj -910 198 t b;
#X obj -1001 176 print patch loaded;
#X obj -1093 64 bng 15 250 50 0 empty play_5 play_5 17 7 0 10 -262144
-1 -1;
#X obj -1125 239 *~ 1;
#X obj -978 266 bng 15 250 50 0 empty stop_5 stop_5 17 7 0 10 -262144
-1 -1;
#X obj -886 239 *~ 1;
#X obj -1125 213 nbx 5 14 0.01 1 1 0 empty empty empty 0 -8 0 10 -262144
-1 -1 0.01 256;
#X obj -1125 139 nbx 5 14 0.01 1 1 0 empty volume_left_5 volume_left_5
0 -8 0 10 -262144 -1 -1 0.01 256;
#X obj -865 215 nbx 5 14 0.01 1 1 0 empty empty empty 0 -8 0 10 -262144
-1 -1 0.01 256;
#X obj -865 146 nbx 5 14 0.01 1 1 0 empty volume_right_5 volume_right_5
0 -8 0 10 -262144 -1 -1 0.01 256;
#X obj -865 191 line 0 20;
#X msg -865 168 \$1 39;
#X obj -1125 188 line 0 20;
#X msg -1022 281 0.01;
#X msg -1125 161 \$1 39;
#X obj -641 270 dac~;
#X obj -642 135 soundfiler;
#X msg -642 165 bang;
#X obj -527 211 t b;
#X obj -618 189 print patch loaded;
#X obj -703 84 bng 15 250 50 0 empty play_6 play_6 17 7 0 10 -262144
-1 -1;
#X obj -742 252 *~ 1;
#X obj -595 279 bng 15 250 50 0 empty stop_6 stop_6 17 7 0 10 -262144
-1 -1;
#X obj -503 252 *~ 1;
#X obj -742 226 nbx 5 14 0.01 1 1 0 empty empty empty 0 -8 0 10 -262144
-1 -1 0.01 256;
#X obj -742 152 nbx 5 14 0.01 1 1 0 empty volume_left_6 volume_left_6
0 -8 0 10 -262144 -1 -1 0.01 256;
#X obj -482 228 nbx 5 14 0.01 1 1 0 empty empty empty 0 -8 0 10 -262144
-1 -1 0.01 256;
#X obj -482 159 nbx 5 14 0.01 1 1 0 empty volume_right_6 volume_right_6
0 -8 0 10 -262144 -1 -1 0.01 256;
#X obj -482 204 line 0 20;
#X msg -482 181 \$1 39;
#X obj -742 201 line 0 20;
#X msg -639 294 0.01;
#X msg -742 174 \$1 39;
#X obj -254 277 dac~;
#X obj -255 142 soundfiler;
#X msg -255 172 bang;
#X obj -140 218 t b;
#X obj -231 196 print patch loaded;
#X obj -355 259 *~ 1;
#X obj -208 286 bng 15 250 50 0 empty stop_7 stop_7 17 7 0 10 -262144
-1 -1;
#X obj -116 259 *~ 1;
#X obj -355 233 nbx 5 14 0.01 1 1 0 empty empty empty 0 -8 0 10 -262144
-1 -1 0.01 256;
#X obj -355 159 nbx 5 14 0.01 1 1 0 empty volume_left_7 volume_left_7
0 -8 0 10 -262144 -1 -1 0.01 256;
#X obj -95 235 nbx 5 14 0.01 1 1 0 empty empty empty 0 -8 0 10 -262144
-1 -1 0.01 256;
#X obj -94 166 nbx 5 14 0.01 1 1 0 empty volume_right_7 volume_right_7
0 -8 0 10 -262144 -1 -1 0.01 256;
#X obj -95 211 line 0 20;
#X msg -95 188 \$1 39;
#X obj -355 208 line 0 20;
#X msg -252 301 0.01;
#X msg -355 181 \$1 39;
#X obj -1020 593 dac~;
#X obj -1021 458 soundfiler;
#X msg -1021 488 bang;
#X obj -906 534 t b;
#X obj -997 512 print patch loaded;
#X obj -1082 407 bng 15 250 50 0 empty play_9 play_9 17 7 0 10 -262144
-1 -1;
#X obj -1121 575 *~ 1;
#X obj -974 602 bng 15 250 50 0 empty stop_9 stop_9 17 7 0 10 -262144
-1 -1;
#X obj -882 575 *~ 1;
#X obj -1121 549 nbx 5 14 0.01 1 1 0 empty empty empty 0 -8 0 10 -262144
-1 -1 0.01 256;
#X obj -1121 475 nbx 5 14 0.01 1 1 0 empty volume_left_9 volume_left_9
0 -8 0 10 -262144 -1 -1 0.01 256;
#X obj -861 551 nbx 5 14 0.01 1 1 0 empty empty empty 0 -8 0 10 -262144
-1 -1 0.01 256;
#X obj -861 482 nbx 5 14 0.01 1 1 0 empty volume_right_9 volume_right_9
0 -8 0 10 -262144 -1 -1 0.01 256;
#X obj -861 527 line 0 20;
#X msg -861 504 \$1 39;
#X obj -1121 524 line 0 20;
#X msg -1018 617 0.01;
#X msg -1121 497 \$1 39;
#X obj -624 594 dac~;
#X obj -625 459 soundfiler;
#X msg -625 489 bang;
#X obj -510 535 t b;
#X obj -601 513 print patch loaded;
#X obj -686 408 bng 15 250 50 0 empty play_10 play_10 17 7 0 10 -262144
-1 -1;
#X obj -725 576 *~ 1;
#X obj -578 603 bng 15 250 50 0 empty stop_10 stop_10 17 7 0 10 -262144
-1 -1;
#X obj -486 576 *~ 1;
#X obj -725 550 nbx 5 14 0.01 1 1 0 empty empty empty 0 -8 0 10 -262144
-1 -1 0.01 256;
#X obj -725 476 nbx 5 14 0.01 1 1 0 empty volume_left_10 volume_left_10
0 -8 0 10 -262144 -1 -1 0.01 256;
#X obj -465 552 nbx 5 14 0.01 1 1 0 empty empty empty 0 -8 0 10 -262144
-1 -1 0.01 256;
#X obj -465 483 nbx 5 14 0.01 1 1 0 empty volume_right_10 volume_right_10
0 -8 0 10 -262144 -1 -1 0.01 256;
#X obj -465 528 line 0 20;
#X msg -465 505 \$1 39;
#X obj -725 525 line 0 20;
#X msg -622 618 0.01;
#X msg -725 498 \$1 39;
#X obj -251 594 dac~;
#X obj -252 459 soundfiler;
#X msg -252 489 bang;
#X obj -137 535 t b;
#X obj -228 513 print patch loaded;
#X obj -313 408 bng 15 250 50 0 empty play_11 play_11 17 7 0 10 -262144
-1 -1;
#X obj -352 576 *~ 1;
#X obj -205 603 bng 15 250 50 0 empty stop_11 stop_11 17 7 0 10 -262144
-1 -1;
#X obj -113 576 *~ 1;
#X obj -352 550 nbx 5 14 0.01 1 1 0 empty empty empty 0 -8 0 10 -262144
-1 -1 0.01 256;
#X obj -352 476 nbx 5 14 0.01 1 1 0 empty volume_left_11 volume_left_11
0 -8 0 10 -262144 -1 -1 0.01 256;
#X obj -92 552 nbx 5 14 0.01 1 1 0 empty empty empty 0 -8 0 10 -262144
-1 -1 0.01 256;
#X obj -92 483 nbx 5 14 0.01 1 1 0 empty volume_right_11 volume_right_11
0 -8 0 10 -262144 -1 -1 0.01 256;
#X obj -92 528 line 0 20;
#X msg -92 505 \$1 39;
#X obj -352 525 line 0 20;
#X msg -249 618 0.01;
#X msg -352 498 \$1 39;
#X obj -1018 914 dac~;
#X obj -1019 779 soundfiler;
#X msg -1019 809 bang;
#X obj -904 855 t b;
#X obj -995 833 print patch loaded;
#X obj -1080 728 bng 15 250 50 0 empty play_13 play_13 17 7 0 10 -262144
-1 -1;
#X obj -1119 896 *~ 1;
#X obj -972 923 bng 15 250 50 0 empty stop_13 stop_13 17 7 0 10 -262144
-1 -1;
#X obj -880 896 *~ 1;
#X obj -1119 870 nbx 5 14 0.01 1 1 0 empty empty empty 0 -8 0 10 -262144
-1 -1 0.01 256;
#X obj -1119 796 nbx 5 14 0.01 1 1 0 empty volume_left_13 volume_left_13
0 -8 0 10 -262144 -1 -1 0.01 256;
#X obj -859 872 nbx 5 14 0.01 1 1 0 empty empty empty 0 -8 0 10 -262144
-1 -1 0.01 256;
#X obj -859 803 nbx 5 14 0.01 1 1 0 empty volume_right_13 volume_right_13
0 -8 0 10 -262144 -1 -1 0.01 256;
#X obj -859 848 line 0 20;
#X msg -859 825 \$1 39;
#X obj -1119 845 line 0 20;
#X msg -1016 938 0.01;
#X msg -1119 818 \$1 39;
#X obj -635 927 dac~;
#X obj -636 792 soundfiler;
#X msg -636 822 bang;
#X obj -521 868 t b;
#X obj -612 846 print patch loaded;
#X obj -697 740 bng 15 250 50 0 empty play_14 play_14 17 7 0 10 -262144
-1 -1;
#X obj -736 909 *~ 1;
#X obj -589 936 bng 15 250 50 0 empty stop_14 stop_14 17 7 0 10 -262144
-1 -1;
#X obj -497 909 *~ 1;
#X obj -736 883 nbx 5 14 0.01 1 1 0 empty empty empty 0 -8 0 10 -262144
-1 -1 0.01 256;
#X obj -736 809 nbx 5 14 0.01 1 1 0 empty volume_left_14 volume_left_14
0 -8 0 10 -262144 -1 -1 0.01 256;
#X obj -476 885 nbx 5 14 0.01 1 1 0 empty empty empty 0 -8 0 10 -262144
-1 -1 0.01 256;
#X obj -476 816 nbx 5 14 0.01 1 1 0 empty volume_right_14 volume_right_14
0 -8 0 10 -262144 -1 -1 0.01 256;
#X obj -476 861 line 0 20;
#X msg -476 838 \$1 39;
#X obj -736 858 line 0 20;
#X msg -633 951 0.01;
#X msg -736 831 \$1 39;
#X obj -248 934 dac~;
#X obj -249 799 soundfiler;
#X msg -249 829 bang;
#X obj -134 875 t b;
#X obj -225 853 print patch loaded;
#X obj -311 748 bng 15 250 50 0 empty play_15 play_15 17 7 0 10 -262144
-1 -1;
#X obj -349 916 *~ 1;
#X obj -202 943 bng 15 250 50 0 empty stop_15 stop_15 17 7 0 10 -262144
-1 -1;
#X obj -110 916 *~ 1;
#X obj -349 890 nbx 5 14 0.01 1 1 0 empty empty empty 0 -8 0 10 -262144
-1 -1 0.01 256;
#X obj -349 816 nbx 5 14 0.01 1 1 0 empty volume_left_15 volume_left_15
0 -8 0 10 -262144 -1 -1 0.01 256;
#X obj -89 892 nbx 5 14 0.01 1 1 0 empty empty empty 0 -8 0 10 -262144
-1 -1 0.01 256;
#X obj -89 823 nbx 5 14 0.01 1 1 0 empty volume_right_15 volume_right_15
0 -8 0 10 -262144 -1 -1 0.01 256;
#X obj -89 868 line 0 20;
#X msg -89 845 \$1 39;
#X obj -349 865 line 0 20;
#X msg -246 958 0.01;
#X msg -349 838 \$1 39;
#X obj -1027 1243 dac~;
#X obj -1028 1108 soundfiler;
#X msg -1028 1138 bang;
#X obj -913 1184 t b;
#X obj -1004 1162 print patch loaded;
#X obj -1089 1057 bng 15 250 50 0 empty play_17 play_17 17 7 0 10 -262144
-1 -1;
#X obj -1128 1225 *~ 1;
#X obj -981 1252 bng 15 250 50 0 empty stop_17 stop_17 17 7 0 10 -262144
-1 -1;
#X obj -889 1225 *~ 1;
#X obj -1128 1199 nbx 5 14 0.01 1 1 0 empty empty empty 0 -8 0 10 -262144
-1 -1 0.01 256;
#X obj -1128 1125 nbx 5 14 0.01 1 1 0 empty volume_left_17 volume_left_17
0 -8 0 10 -262144 -1 -1 0.01 256;
#X obj -868 1201 nbx 5 14 0.01 1 1 0 empty empty empty 0 -8 0 10 -262144
-1 -1 0.01 256;
#X obj -868 1132 nbx 5 14 0.01 1 1 0 empty volume_right_17 volume_right_17
0 -8 0 10 -262144 -1 -1 0.01 256;
#X obj -868 1177 line 0 20;
#X msg -868 1154 \$1 39;
#X obj -1128 1174 line 0 20;
#X msg -1025 1267 0.01;
#X msg -1128 1147 \$1 39;
#X obj -644 1256 dac~;
#X obj -645 1121 soundfiler;
#X msg -645 1151 bang;
#X obj -530 1197 t b;
#X obj -621 1175 print patch loaded;
#X obj -706 1069 bng 15 250 50 0 empty play_18 play_18 17 7 0 10 -262144
-1 -1;
#X obj -745 1238 *~ 1;
#X obj -598 1265 bng 15 250 50 0 empty stop_18 stop_18 17 7 0 10 -262144
-1 -1;
#X obj -506 1238 *~ 1;
#X obj -745 1212 nbx 5 14 0.01 1 1 0 empty empty empty 0 -8 0 10 -262144
-1 -1 0.01 256;
#X obj -745 1138 nbx 5 14 0.01 1 1 0 empty volume_left_18 volume_left_18
0 -8 0 10 -262144 -1 -1 0.01 256;
#X obj -485 1214 nbx 5 14 0.01 1 1 0 empty empty empty 0 -8 0 10 -262144
-1 -1 0.01 256;
#X obj -484 1145 nbx 5 14 0.01 1 1 0 empty volume_right_18 volume_right_18
0 -8 0 10 -262144 -1 -1 0.01 256;
#X obj -485 1190 line 0 20;
#X msg -485 1167 \$1 39;
#X obj -745 1187 line 0 20;
#X msg -642 1280 0.01;
#X msg -745 1160 \$1 39;
#X obj -257 1263 dac~;
#X obj -258 1128 soundfiler;
#X msg -258 1158 bang;
#X obj -143 1204 t b;
#X obj -234 1182 print patch loaded;
#X obj -319 1077 bng 15 250 50 0 empty play_19 play_19 17 7 0 10 -262144
-1 -1;
#X obj -358 1245 *~ 1;
#X obj -211 1272 bng 15 250 50 0 empty stop_19 stop_19 17 7 0 10 -262144
-1 -1;
#X obj -119 1245 *~ 1;
#X obj -358 1219 nbx 5 14 0.01 1 1 0 empty empty empty 0 -8 0 10 -262144
-1 -1 0.01 256;
#X obj -358 1145 nbx 5 14 0.01 1 1 0 empty volume_left_19 volume_left_19
0 -8 0 10 -262144 -1 -1 0.01 256;
#X obj -98 1221 nbx 5 14 0.01 1 1 0 empty empty empty 0 -8 0 10 -262144
-1 -1 0.01 256;
#X obj -98 1152 nbx 5 14 0.01 1 1 0 empty volume_right_19 volume_right_19
0 -8 0 10 -262144 -1 -1 0.01 256;
#X obj -98 1197 line 0 20;
#X msg -98 1174 \$1 39;
#X obj -358 1194 line 0 20;
#X msg -255 1287 0.01;
#X msg -358 1167 \$1 39;
#X obj -631 -99 tabplay~ array_2;
#X msg -584 -7 \; array_2 const 0 \;;
#X obj -259 -98 tabplay~ array_3;
#X msg -211 -7 \; array_3 const 0 \;;
#X obj 129 -95 tabplay~ array_4;
#X msg 175 -3 \; array_4 const 0 \;;
#X obj -1025 221 tabplay~ array_5;
#X msg -978 313 \; array_5 const 0 \;;
#X obj -642 234 tabplay~ array_6;
#X msg -594 329 \; array_6 const 0 \;;
#X obj -316 91 bng 15 250 50 0 empty play_7 play_7 17 7 0 10 -262144
-1 -1;
#X obj -255 241 tabplay~ array_7;
#X msg -208 333 \; array_7 const 0 \;;
#X obj 22 161 nbx 5 14 0.01 1 1 0 empty volume_left_8 volume_left_8
0 -8 0 10 -262144 -1 -1 0.01 256;
#X obj 122 245 tabplay~ array_8;
#X msg 169 337 \; array_8 const 0 \;;
#X obj -1021 557 tabplay~ array_9;
#X msg -974 649 \; array_9 const 0 \;;
#X obj -625 558 tabplay~ array_10;
#X msg -578 650 \; array_10 const 0 \;;
#X obj -252 558 tabplay~ array_11;
#X msg -205 650 \; array_11 const 0 \;;
#X obj 114 559 tabplay~ array_12;
#X msg 161 650 \; array_12 const 0 \;;
#X obj -1019 878 tabplay~ array_13;
#X msg -972 970 \; array_13 const 0 \;;
#X obj -636 891 tabplay~ array_14;
#X msg -589 982 \; array_14 const 0 \;;
#X obj -249 898 tabplay~ array_15;
#X msg -201 990 \; array_15 const 0 \;;
#X obj 137 887 tabplay~ array_16;
#X msg 184 979 \; array_16 const 0 \;;
#X obj -1028 1207 tabplay~ array_17;
#X msg -981 1299 \; array_17 const 0 \;;
#X obj -645 1220 tabplay~ array_18;
#X msg -597 1312 \; array_18 const 0 \;;
#X obj -258 1228 tabplay~ array_19;
#X msg -211 1319 \; array_19 const 0 \;;
#X obj 148 1226 tabplay~ array_20;
#X msg 195 1318 \; array_20 const 0 \;;
#X obj 195 1292 delay 50;
#X obj -211 1293 delay 50;
#X obj -599 1286 delay 50;
#X obj -981 1273 delay 50;
#X obj -972 944 delay 50;
#X obj -590 957 delay 50;
#X obj -202 964 delay 50;
#X obj 184 953 delay 50;
#X obj 161 624 delay 50;
#X obj -206 624 delay 50;
#X obj -578 624 delay 50;
#X obj -974 623 delay 50;
#X obj -978 286 delay 50;
#X obj -595 300 delay 50;
#X obj -208 307 delay 50;
#X obj 169 311 delay 50;
#X obj 176 -29 delay 50;
#X obj -211 -33 delay 50;
#X obj -584 -33 delay 50;
#X obj -980 -34 delay 50;
#X obj -1122 -83 *~ 1;
#X connect 1 0 2 0;
#X connect 2 0 4 0;
#X connect 2 0 8 0;
#X connect 3 0 8 0;
#X connect 5 0 28 0;
#X connect 8 0 29 0;
#X connect 8 0 459 0;
#X connect 8 1 3 0;
#X connect 9 0 38 0;
#X connect 9 0 458 0;
#X connect 28 0 1 0;
#X connect 29 0 0 1;
#X connect 31 0 459 1;
#X connect 32 0 39 0;
#X connect 33 0 29 1;
#X connect 34 0 36 0;
#X connect 35 0 33 0;
#X connect 36 0 35 0;
#X connect 37 0 31 0;
#X connect 38 0 34 0;
#X connect 38 0 32 0;
#X connect 39 0 37 0;
#X connect 40 0 274 0;
#X connect 41 0 131 0;
#X connect 42 0 292 0;
#X connect 43 0 310 0;
#X connect 44 0 328 0;
#X connect 45 0 60 0;
#X connect 46 0 78 0;
#X connect 47 0 203 0;
#X connect 48 0 221 0;
#X connect 49 0 113 0;
#X connect 50 0 185 0;
#X connect 51 0 96 0;
#X connect 52 0 238 0;
#X connect 53 0 256 0;
#X connect 54 0 149 0;
#X connect 55 0 346 0;
#X connect 56 0 364 0;
#X connect 57 0 382 0;
#X connect 58 0 167 0;
#X connect 60 0 61 0;
#X connect 61 0 63 0;
#X connect 61 0 399 0;
#X connect 62 0 399 0;
#X connect 64 0 45 0;
#X connect 65 0 59 0;
#X connect 66 0 75 0;
#X connect 66 0 457 0;
#X connect 67 0 59 1;
#X connect 68 0 65 1;
#X connect 69 0 76 0;
#X connect 70 0 67 1;
#X connect 71 0 73 0;
#X connect 72 0 70 0;
#X connect 73 0 72 0;
#X connect 74 0 68 0;
#X connect 75 0 71 0;
#X connect 75 0 69 0;
#X connect 76 0 74 0;
#X connect 78 0 79 0;
#X connect 79 0 81 0;
#X connect 79 0 401 0;
#X connect 80 0 401 0;
#X connect 82 0 46 0;
#X connect 83 0 77 0;
#X connect 84 0 93 0;
#X connect 84 0 456 0;
#X connect 85 0 77 1;
#X connect 86 0 83 1;
#X connect 87 0 94 0;
#X connect 88 0 85 1;
#X connect 89 0 91 0;
#X connect 90 0 88 0;
#X connect 91 0 90 0;
#X connect 92 0 86 0;
#X connect 93 0 89 0;
#X connect 93 0 87 0;
#X connect 94 0 92 0;
#X connect 96 0 97 0;
#X connect 97 0 99 0;
#X connect 97 0 413 0;
#X connect 98 0 413 0;
#X connect 100 0 51 0;
#X connect 101 0 95 0;
#X connect 102 0 110 0;
#X connect 102 0 454 0;
#X connect 103 0 95 1;
#X connect 104 0 101 1;
#X connect 105 0 103 1;
#X connect 106 0 108 0;
#X connect 107 0 105 0;
#X connect 108 0 107 0;
#X connect 109 0 104 0;
#X connect 110 0 106 0;
#X connect 110 0 412 0;
#X connect 111 0 109 0;
#X connect 113 0 114 0;
#X connect 114 0 116 0;
#X connect 114 0 403 0;
#X connect 115 0 403 0;
#X connect 117 0 49 0;
#X connect 118 0 112 0;
#X connect 119 0 128 0;
#X connect 119 0 455 0;
#X connect 120 0 112 1;
#X connect 121 0 118 1;
#X connect 122 0 129 0;
#X connect 123 0 120 1;
#X connect 124 0 126 0;
#X connect 125 0 123 0;
#X connect 126 0 125 0;
#X connect 127 0 121 0;
#X connect 128 0 124 0;
#X connect 128 0 122 0;
#X connect 129 0 127 0;
#X connect 131 0 132 0;
#X connect 132 0 134 0;
#X connect 132 0 421 0;
#X connect 133 0 421 0;
#X connect 135 0 41 0;
#X connect 136 0 130 0;
#X connect 137 0 146 0;
#X connect 137 0 447 0;
#X connect 138 0 130 1;
#X connect 139 0 136 1;
#X connect 140 0 147 0;
#X connect 141 0 138 1;
#X connect 142 0 144 0;
#X connect 143 0 141 0;
#X connect 144 0 143 0;
#X connect 145 0 139 0;
#X connect 146 0 142 0;
#X connect 146 0 140 0;
#X connect 147 0 145 0;
#X connect 149 0 150 0;
#X connect 150 0 152 0;
#X connect 150 0 429 0;
#X connect 151 0 429 0;
#X connect 153 0 54 0;
#X connect 154 0 148 0;
#X connect 155 0 164 0;
#X connect 155 0 446 0;
#X connect 156 0 148 1;
#X connect 157 0 154 1;
#X connect 158 0 165 0;
#X connect 159 0 156 1;
#X connect 160 0 162 0;
#X connect 161 0 159 0;
#X connect 162 0 161 0;
#X connect 163 0 157 0;
#X connect 164 0 160 0;
#X connect 164 0 158 0;
#X connect 165 0 163 0;
#X connect 167 0 168 0;
#X connect 168 0 170 0;
#X connect 168 0 437 0;
#X connect 169 0 437 0;
#X connect 171 0 58 0;
#X connect 172 0 166 0;
#X connect 173 0 182 0;
#X connect 173 0 439 0;
#X connect 174 0 166 1;
#X connect 175 0 172 1;
#X connect 176 0 183 0;
#X connect 177 0 174 1;
#X connect 178 0 180 0;
#X connect 179 0 177 0;
#X connect 180 0 179 0;
#X connect 181 0 175 0;
#X connect 182 0 178 0;
#X connect 182 0 176 0;
#X connect 183 0 181 0;
#X connect 185 0 186 0;
#X connect 186 0 188 0;
#X connect 186 0 405 0;
#X connect 187 0 405 0;
#X connect 189 0 50 0;
#X connect 190 0 184 0;
#X connect 191 0 200 0;
#X connect 191 0 451 0;
#X connect 192 0 184 1;
#X connect 193 0 190 1;
#X connect 194 0 201 0;
#X connect 195 0 192 1;
#X connect 196 0 198 0;
#X connect 197 0 195 0;
#X connect 198 0 197 0;
#X connect 199 0 193 0;
#X connect 200 0 196 0;
#X connect 200 0 194 0;
#X connect 201 0 199 0;
#X connect 203 0 204 0;
#X connect 204 0 206 0;
#X connect 204 0 407 0;
#X connect 205 0 407 0;
#X connect 207 0 47 0;
#X connect 208 0 202 0;
#X connect 209 0 218 0;
#X connect 209 0 452 0;
#X connect 210 0 202 1;
#X connect 211 0 208 1;
#X connect 212 0 219 0;
#X connect 213 0 210 1;
#X connect 214 0 216 0;
#X connect 215 0 213 0;
#X connect 216 0 215 0;
#X connect 217 0 211 0;
#X connect 218 0 214 0;
#X connect 218 0 212 0;
#X connect 219 0 217 0;
#X connect 221 0 222 0;
#X connect 222 0 224 0;
#X connect 222 0 410 0;
#X connect 223 0 410 0;
#X connect 225 0 220 0;
#X connect 226 0 235 0;
#X connect 226 0 453 0;
#X connect 227 0 220 1;
#X connect 228 0 225 1;
#X connect 229 0 236 0;
#X connect 230 0 227 1;
#X connect 231 0 233 0;
#X connect 232 0 230 0;
#X connect 233 0 232 0;
#X connect 234 0 228 0;
#X connect 235 0 231 0;
#X connect 235 0 229 0;
#X connect 236 0 234 0;
#X connect 238 0 239 0;
#X connect 239 0 241 0;
#X connect 239 0 415 0;
#X connect 240 0 415 0;
#X connect 242 0 52 0;
#X connect 243 0 237 0;
#X connect 244 0 253 0;
#X connect 244 0 450 0;
#X connect 245 0 237 1;
#X connect 246 0 243 1;
#X connect 247 0 254 0;
#X connect 248 0 245 1;
#X connect 249 0 251 0;
#X connect 250 0 248 0;
#X connect 251 0 250 0;
#X connect 252 0 246 0;
#X connect 253 0 249 0;
#X connect 253 0 247 0;
#X connect 254 0 252 0;
#X connect 256 0 257 0;
#X connect 257 0 259 0;
#X connect 257 0 417 0;
#X connect 258 0 417 0;
#X connect 260 0 53 0;
#X connect 261 0 255 0;
#X connect 262 0 271 0;
#X connect 262 0 449 0;
#X connect 263 0 255 1;
#X connect 264 0 261 1;
#X connect 265 0 272 0;
#X connect 266 0 263 1;
#X connect 267 0 269 0;
#X connect 268 0 266 0;
#X connect 269 0 268 0;
#X connect 270 0 264 0;
#X connect 271 0 267 0;
#X connect 271 0 265 0;
#X connect 272 0 270 0;
#X connect 274 0 275 0;
#X connect 275 0 277 0;
#X connect 275 0 419 0;
#X connect 276 0 419 0;
#X connect 278 0 40 0;
#X connect 279 0 273 0;
#X connect 280 0 289 0;
#X connect 280 0 448 0;
#X connect 281 0 273 1;
#X connect 282 0 279 1;
#X connect 283 0 290 0;
#X connect 284 0 281 1;
#X connect 285 0 287 0;
#X connect 286 0 284 0;
#X connect 287 0 286 0;
#X connect 288 0 282 0;
#X connect 289 0 285 0;
#X connect 289 0 283 0;
#X connect 290 0 288 0;
#X connect 292 0 293 0;
#X connect 293 0 295 0;
#X connect 293 0 423 0;
#X connect 294 0 423 0;
#X connect 296 0 42 0;
#X connect 297 0 291 0;
#X connect 298 0 307 0;
#X connect 298 0 443 0;
#X connect 299 0 291 1;
#X connect 300 0 297 1;
#X connect 301 0 308 0;
#X connect 302 0 299 1;
#X connect 303 0 305 0;
#X connect 304 0 302 0;
#X connect 305 0 304 0;
#X connect 306 0 300 0;
#X connect 307 0 303 0;
#X connect 307 0 301 0;
#X connect 308 0 306 0;
#X connect 310 0 311 0;
#X connect 311 0 313 0;
#X connect 311 0 425 0;
#X connect 312 0 425 0;
#X connect 314 0 43 0;
#X connect 315 0 309 0;
#X connect 316 0 325 0;
#X connect 316 0 444 0;
#X connect 317 0 309 1;
#X connect 318 0 315 1;
#X connect 319 0 326 0;
#X connect 320 0 317 1;
#X connect 321 0 323 0;
#X connect 322 0 320 0;
#X connect 323 0 322 0;
#X connect 324 0 318 0;
#X connect 325 0 321 0;
#X connect 325 0 319 0;
#X connect 326 0 324 0;
#X connect 328 0 329 0;
#X connect 329 0 331 0;
#X connect 329 0 427 0;
#X connect 330 0 427 0;
#X connect 332 0 44 0;
#X connect 333 0 327 0;
#X connect 334 0 343 0;
#X connect 334 0 445 0;
#X connect 335 0 327 1;
#X connect 336 0 333 1;
#X connect 337 0 344 0;
#X connect 338 0 335 1;
#X connect 339 0 341 0;
#X connect 340 0 338 0;
#X connect 341 0 340 0;
#X connect 342 0 336 0;
#X connect 343 0 339 0;
#X connect 343 0 337 0;
#X connect 344 0 342 0;
#X connect 346 0 347 0;
#X connect 347 0 349 0;
#X connect 347 0 431 0;
#X connect 348 0 431 0;
#X connect 350 0 55 0;
#X connect 351 0 345 0;
#X connect 352 0 361 0;
#X connect 352 0 442 0;
#X connect 353 0 345 1;
#X connect 354 0 351 1;
#X connect 355 0 362 0;
#X connect 356 0 353 1;
#X connect 357 0 359 0;
#X connect 358 0 356 0;
#X connect 359 0 358 0;
#X connect 360 0 354 0;
#X connect 361 0 357 0;
#X connect 361 0 355 0;
#X connect 362 0 360 0;
#X connect 364 0 365 0;
#X connect 365 0 367 0;
#X connect 365 0 433 0;
#X connect 366 0 433 0;
#X connect 368 0 56 0;
#X connect 369 0 363 0;
#X connect 370 0 379 0;
#X connect 370 0 441 0;
#X connect 371 0 363 1;
#X connect 372 0 369 1;
#X connect 373 0 380 0;
#X connect 374 0 371 1;
#X connect 375 0 377 0;
#X connect 376 0 374 0;
#X connect 377 0 376 0;
#X connect 378 0 372 0;
#X connect 379 0 375 0;
#X connect 379 0 373 0;
#X connect 380 0 378 0;
#X connect 382 0 383 0;
#X connect 383 0 385 0;
#X connect 383 0 435 0;
#X connect 384 0 435 0;
#X connect 386 0 57 0;
#X connect 387 0 381 0;
#X connect 388 0 397 0;
#X connect 388 0 440 0;
#X connect 389 0 381 1;
#X connect 390 0 387 1;
#X connect 391 0 398 0;
#X connect 392 0 389 1;
#X connect 393 0 395 0;
#X connect 394 0 392 0;
#X connect 395 0 394 0;
#X connect 396 0 390 0;
#X connect 397 0 393 0;
#X connect 397 0 391 0;
#X connect 398 0 396 0;
#X connect 399 0 67 0;
#X connect 399 0 65 0;
#X connect 399 1 62 0;
#X connect 401 0 85 0;
#X connect 401 0 83 0;
#X connect 401 1 80 0;
#X connect 403 0 120 0;
#X connect 403 0 118 0;
#X connect 403 1 115 0;
#X connect 405 0 192 0;
#X connect 405 0 190 0;
#X connect 405 1 187 0;
#X connect 407 0 210 0;
#X connect 407 0 208 0;
#X connect 407 1 205 0;
#X connect 409 0 48 0;
#X connect 410 0 227 0;
#X connect 410 0 225 0;
#X connect 410 1 223 0;
#X connect 412 0 111 0;
#X connect 413 0 103 0;
#X connect 413 0 101 0;
#X connect 413 1 98 0;
#X connect 415 0 245 0;
#X connect 415 0 243 0;
#X connect 415 1 240 0;
#X connect 417 0 263 0;
#X connect 417 0 261 0;
#X connect 417 1 258 0;
#X connect 419 0 281 0;
#X connect 419 0 279 0;
#X connect 419 1 276 0;
#X connect 421 0 138 0;
#X connect 421 0 136 0;
#X connect 421 1 133 0;
#X connect 423 0 299 0;
#X connect 423 0 297 0;
#X connect 423 1 294 0;
#X connect 425 0 317 0;
#X connect 425 0 315 0;
#X connect 425 1 312 0;
#X connect 427 0 335 0;
#X connect 427 0 333 0;
#X connect 427 1 330 0;
#X connect 429 0 156 0;
#X connect 429 0 154 0;
#X connect 429 1 151 0;
#X connect 431 0 353 0;
#X connect 431 0 351 0;
#X connect 431 1 348 0;
#X connect 433 0 371 0;
#X connect 433 0 369 0;
#X connect 433 1 366 0;
#X connect 435 0 389 0;
#X connect 435 0 387 0;
#X connect 435 1 384 0;
#X connect 437 0 174 0;
#X connect 437 0 172 0;
#X connect 437 1 169 0;
#X connect 439 0 438 0;
#X connect 440 0 436 0;
#X connect 441 0 434 0;
#X connect 442 0 432 0;
#X connect 443 0 424 0;
#X connect 444 0 426 0;
#X connect 445 0 428 0;
#X connect 446 0 430 0;
#X connect 447 0 422 0;
#X connect 448 0 420 0;
#X connect 449 0 418 0;
#X connect 450 0 416 0;
#X connect 451 0 406 0;
#X connect 452 0 408 0;
#X connect 453 0 411 0;
#X connect 454 0 414 0;
#X connect 455 0 404 0;
#X connect 456 0 402 0;
#X connect 457 0 400 0;
#X connect 458 0 30 0;
#X connect 459 0 0 0;
